<?xml version="1.0" encoding="utf-8"?>
<!-- Generator: Adobe Illustrator 15.0.2, SVG Export Plug-In . SVG Version: 6.00 Build 0)  -->
<!DOCTYPE svg PUBLIC "-//W3C//DTD SVG 1.1//EN" "http://www.w3.org/Graphics/SVG/1.1/DTD/svg11.dtd">
<svg version="1.1" id="Layer_1" xmlns="http://www.w3.org/2000/svg" xmlns:xlink="http://www.w3.org/1999/xlink" x="0px" y="0px"
	 width="1436.862px" height="110.828px" viewBox="0 448.643 1436.862 110.828" enable-background="new 0 448.643 1436.862 110.828"
	 xml:space="preserve">
<g>
	<g transform="translate(-38 -58)">
		<path fill="#322835" d="M1064.086,508.433l-33.546,105.412h15.33l33.297-105.412H1064.086z M660.8,613.058h-15.4l33.691-105.021
			h15.148L660.8,613.058L660.8,613.058z M71.546,508.433L38,613.845h15.33l33.297-105.412H71.546z"/>
		<defs>
			<filter id="Adobe_OpacityMaskFilter" filterUnits="userSpaceOnUse" x="90.564" y="610.321" width="537.814" height="7.149">
				<feColorMatrix  type="matrix" values="1 0 0 0 0  0 1 0 0 0  0 0 1 0 0  0 0 0 1 0"/>
			</filter>
		</defs>
		<mask maskUnits="userSpaceOnUse" x="90.564" y="610.321" width="537.814" height="7.149" id="b">
			<path fill="#FFFFFF" filter="url(#Adobe_OpacityMaskFilter)" d="M90.564,610.321h537.813v7.149H90.564V610.321z"/>
		</mask>
		<g mask="url(#b)">
			<path fill="#0BB8A7" d="M94.102,617.471h24.768c1.955,0,3.539-1.598,3.539-3.574c0-1.978-1.584-3.575-3.539-3.575H94.102
				c-1.954,0-3.538,1.598-3.538,3.575C90.564,615.873,92.148,617.471,94.102,617.471z M140.1,617.471h24.768
				c1.954,0,3.538-1.598,3.538-3.574c0-1.978-1.584-3.575-3.538-3.575H140.1c-1.954,0-3.538,1.598-3.538,3.575
				C136.562,615.873,138.146,617.471,140.1,617.471z M210.866,617.471h-24.768c-1.955,0-3.538-1.598-3.538-3.574
				c0-1.978,1.583-3.575,3.538-3.575h24.768c1.952,0,3.538,1.598,3.538,3.575C214.404,615.873,212.818,617.471,210.866,617.471z
				 M232.093,617.471h24.77c1.953,0,3.536-1.598,3.536-3.574c0-1.978-1.583-3.575-3.536-3.575h-24.77
				c-1.954,0-3.536,1.598-3.536,3.575C228.557,615.873,230.139,617.471,232.093,617.471z M302.859,617.471h-24.768
				c-1.954,0-3.538-1.598-3.538-3.574c0-1.978,1.584-3.575,3.538-3.575h24.768c1.954,0,3.538,1.598,3.538,3.575
				C306.397,615.873,304.813,617.471,302.859,617.471z M324.089,617.471h24.769c1.953,0,3.537-1.598,3.537-3.574
				c0-1.978-1.584-3.575-3.537-3.575H324.09c-1.955,0-3.539,1.598-3.539,3.575c0,1.977,1.584,3.574,3.54,3.574H324.089z
				 M394.854,617.471h-24.768c-1.954,0-3.538-1.598-3.538-3.574c0-1.978,1.584-3.575,3.538-3.575h24.768
				c1.955,0,3.536,1.598,3.536,3.575C398.39,615.873,396.81,617.471,394.854,617.471z M416.084,617.471h24.766
				c1.954,0,3.538-1.598,3.538-3.574c0-1.978-1.584-3.575-3.538-3.575h-24.766c-1.954,0-3.538,1.598-3.538,3.575
				C412.546,615.873,414.13,617.471,416.084,617.471z M486.848,617.471H462.08c-1.955,0-3.539-1.598-3.539-3.574
				c0-1.978,1.584-3.575,3.54-3.575h24.767c1.954,0,3.538,1.598,3.538,3.575C490.386,615.873,488.802,617.471,486.848,617.471
				L486.848,617.471z M508.078,617.471h24.767c1.955,0,3.54-1.598,3.54-3.574c0-1.978-1.585-3.575-3.54-3.575h-24.768
				c-1.954,0-3.538,1.598-3.538,3.575C504.539,615.873,506.123,617.471,508.078,617.471L508.078,617.471z M578.843,617.471h-24.768
				c-1.957,0-3.538-1.598-3.538-3.574c0-1.978,1.581-3.575,3.538-3.575h24.768c1.956,0,3.538,1.598,3.538,3.575
				C582.381,615.873,580.799,617.471,578.843,617.471z M600.07,617.471h24.768c1.957,0,3.54-1.598,3.54-3.574
				c0-1.978-1.583-3.575-3.54-3.575H600.07c-1.956,0-3.538,1.598-3.538,3.575C596.532,615.873,598.114,617.471,600.07,617.471z"/>
		</g>
		<defs>
			<filter id="Adobe_OpacityMaskFilter_1_" filterUnits="userSpaceOnUse" x="686.85" y="506.643" width="350.364" height="107.256">
				<feColorMatrix  type="matrix" values="1 0 0 0 0  0 1 0 0 0  0 0 1 0 0  0 0 0 1 0"/>
			</filter>
		</defs>
		<mask maskUnits="userSpaceOnUse" x="686.85" y="506.643" width="350.364" height="107.256" id="c">
			<path fill="#FFFFFF" filter="url(#Adobe_OpacityMaskFilter_1_)" d="M686.85,506.644h350.364v107.255H686.85V506.644z"/>
		</mask>
		<g mask="url(#c)">
			<path fill="#322835" d="M1006.619,613.898H686.85l30.596-107.256h319.769L1006.619,613.898z"/>
		</g>
		<path fill="#0BB8A7" d="M936.716,574.308c4.654,4.905,11.888,9.008,21.002,9.008c7.729,0,11.492-3.7,11.492-7.507
			c0-5.004-5.747-6.708-13.372-8.507c-10.803-2.505-24.67-5.507-24.67-20.421c0-11.113,9.51-20.121,25.065-20.121
			c10.498,0,19.22,3.201,25.758,9.309l-7.826,10.409c-5.348-5.003-12.484-7.306-18.925-7.306c-6.34,0-9.707,2.802-9.707,6.807
			c0,4.505,5.546,5.909,13.176,7.711c10.898,2.496,24.769,5.804,24.769,20.618c0,12.21-8.616,21.421-26.45,21.421
			c-12.681,0-21.797-4.303-28.041-10.609L936.716,574.308z M890.905,567.2l-25.457-39.44h16.045l16.447,26.83l16.247-26.83h16.05
			l-25.262,39.44v27.33h-14.069L890.905,567.2L890.905,567.2z"/>
		<path fill="#0BB8A7" d="M821.058,594.529l4.163-11.515h29.525l4.158,11.515h15.355l-25.457-66.768h-17.636l-25.56,66.768H821.058z
			 M850.882,570.704h-21.896l10.999-30.632L850.882,570.704z M770.648,527.761H744.59v66.771h26.059
			c20.702,0,35.069-13.217,35.069-33.336C805.718,541.075,791.351,527.761,770.648,527.761L770.648,527.761z M791.351,561.195
			c0,11.312-7.626,20.821-20.702,20.821H758.66v-41.742h11.986C784.217,540.274,791.35,549.384,791.351,561.195L791.351,561.195z"/>
		<path fill="#322835" d="M615,586.8c3.605,0,6.374-0.261,8.3-0.789c1.922-0.526,2.888-1.598,2.888-3.221
			c0-1.053-0.301-1.946-0.902-2.676c-0.605-0.727-1.444-1.355-2.528-1.882c-1.082-0.528-2.325-1.033-3.728-1.521
			c-1.458-0.505-2.923-0.991-4.394-1.458c-2.164-0.65-4.37-1.4-6.617-2.247c-2.245-0.852-4.288-1.925-6.133-3.224
			c-1.845-1.296-3.37-2.938-4.573-4.92c-1.199-1.984-1.8-4.479-1.8-7.479c0-2.428,0.46-4.72,1.38-6.866
			c0.922-2.148,2.363-4.056,4.329-5.715c1.967-1.659,4.47-2.957,7.519-3.89c3.05-0.931,6.696-1.398,10.952-1.398
			c3.687,0,7.113,0.286,10.281,0.853c3.17,0.565,5.914,1.38,8.241,2.43l-2.284,12.644c-2.132-0.646-4.258-1.316-6.376-2.009
			c-2.89-0.928-6.135-1.395-9.747-1.395c-3.768,0-6.312,0.467-7.637,1.395c-1.32,0.935-1.985,1.928-1.985,2.979
			c0,0.895,0.301,1.684,0.9,2.372c0.604,0.689,1.404,1.317,2.41,1.884c1.002,0.569,2.162,1.114,3.487,1.641
			c1.404,0.558,2.828,1.064,4.27,1.521c2.167,0.729,4.409,1.54,6.738,2.43c2.325,0.892,4.43,2.006,6.315,3.345
			c1.883,1.336,3.427,3.036,4.629,5.104c1.205,2.066,1.806,4.601,1.806,7.597c0,2.354-0.438,4.58-1.323,6.686
			c-0.882,2.11-2.343,3.932-4.389,5.471c-2.043,1.54-4.714,2.755-8.002,3.646c-3.29,0.891-7.335,1.336-12.15,1.336
			c-4.892,0-9.062-0.564-12.51-1.7c-3.45-1.133-6.216-2.146-8.3-3.039l2.283-12.521c2.94,1.184,5.931,2.239,8.962,3.163
			C608.451,586.311,611.717,586.802,615,586.8 M559.745,586.8c3.606,0,6.374-0.261,8.301-0.789c1.923-0.526,2.89-1.598,2.89-3.221
			c0-1.053-0.302-1.946-0.903-2.676c-0.605-0.727-1.444-1.355-2.528-1.882c-1.084-0.528-2.327-1.033-3.729-1.521
			c-1.457-0.505-2.921-0.991-4.391-1.458c-2.165-0.65-4.373-1.4-6.62-2.247c-2.244-0.852-4.288-1.925-6.13-3.224
			c-1.848-1.296-3.371-2.938-4.573-4.92c-1.202-1.984-1.804-4.479-1.804-7.479c0-2.428,0.46-4.72,1.381-6.866
			c0.925-2.148,2.365-4.056,4.33-5.715c1.966-1.659,4.473-2.957,7.52-3.89c3.05-0.931,6.696-1.398,10.952-1.398
			c3.685,0,7.111,0.286,10.281,0.853c3.168,0.565,5.914,1.38,8.239,2.43l-2.282,12.644c-2.132-0.646-4.258-1.315-6.376-2.009
			c-2.89-0.928-6.138-1.395-9.747-1.395c-3.768,0-6.313,0.467-7.637,1.395c-1.323,0.935-1.984,1.928-1.984,2.979
			c0,0.895,0.3,1.684,0.899,2.372c0.604,0.689,1.404,1.317,2.408,1.884c1.002,0.569,2.164,1.114,3.487,1.641
			c1.405,0.558,2.83,1.064,4.271,1.521c2.164,0.729,4.407,1.54,6.736,2.43c2.327,0.892,4.433,2.006,6.317,3.345
			c1.884,1.336,3.427,3.036,4.63,5.104c1.205,2.066,1.805,4.601,1.805,7.597c0,2.354-0.44,4.58-1.326,6.686
			c-0.879,2.11-2.34,3.932-4.386,5.471c-2.045,1.54-4.713,2.755-8.002,3.646c-3.29,0.891-7.335,1.336-12.15,1.336
			c-4.892,0-9.063-0.564-12.51-1.7c-3.45-1.133-6.216-2.146-8.3-3.039l2.283-12.521c2.94,1.184,5.931,2.239,8.963,3.163
			C553.197,586.311,556.462,586.801,559.745,586.8"/>
		<path fill="#322835" d="M481.118,556.777c-1.526,3.81-2.287,8.228-2.287,13.25c0,4.859,0.72,9.115,2.166,12.761
			c1.444,3.647,3.507,6.707,6.196,9.18c2.686,2.47,5.934,4.334,9.741,5.592c3.809,1.255,8.12,1.884,12.936,1.884
			c3.608,0,6.855-0.306,9.743-0.911c2.887-0.609,5.612-1.355,8.18-2.25l-2.045-12.766c-1.845,0.651-4.11,1.3-6.796,1.945
			c-2.69,0.65-5.515,0.974-8.482,0.974c-4.81,0-8.743-1.07-11.788-3.221c-3.05-2.144-4.572-5.084-4.572-8.812h36.69
			c0.078-0.647,0.138-1.5,0.181-2.553c0.039-1.052,0.06-2.066,0.06-3.038c0-9.562-2.163-16.835-6.496-21.82
			c-4.332-4.982-10.668-7.476-19.007-7.476c-3.369,0-6.66,0.65-9.866,1.945c-3.208,1.299-6.054,3.222-8.54,5.773
			C484.644,549.789,482.638,552.97,481.118,556.777L481.118,556.777z M516.124,559.634c0.405,1.444,0.607,2.938,0.602,4.438h-22.616
			c0.159-1.54,0.5-3.041,1.023-4.497c0.494-1.412,1.227-2.729,2.164-3.894c0.921-1.132,2.085-2.021,3.489-2.671
			c1.399-0.649,3.066-0.974,4.993-0.974c2.003,0,3.687,0.345,5.053,1.034c1.363,0.688,2.485,1.603,3.366,2.732
			C515.082,556.943,515.736,558.244,516.124,559.634L516.124,559.634z"/>
		<path fill="#322835" d="M474.163,595.674c-0.238,0.165-0.78,0.447-1.624,0.854c-0.84,0.404-1.945,0.831-3.308,1.272
			c-1.365,0.449-3.027,0.832-4.99,1.156c-1.968,0.323-4.195,0.485-6.679,0.485c-6.817,0-11.789-2.044-14.916-6.139
			c-3.13-4.091-4.691-10.066-4.691-17.928v-48.5h-15.641v-12.398h30.437v61.992c0,3.891,0.76,6.525,2.287,7.9
			c1.521,1.38,3.446,2.068,5.772,2.068c2.966,0,5.45-0.406,7.458-1.216c1.319-0.537,2.643-1.064,3.971-1.58L474.163,595.674z
			 M420.425,556.171c-1.134-0.282-2.276-0.525-3.427-0.729c-1.34-0.245-2.684-0.469-4.031-0.67
			c-1.317-0.195-2.642-0.337-3.971-0.427c-1.082-0.071-2.165-0.111-3.249-0.12c-2.086,0-4.13,0.103-6.132,0.306
			c-2.074,0.215-4.126,0.6-6.137,1.151v42.425h-14.918v-53.361c3.941-1.463,7.981-2.642,12.091-3.528
			c4.131-0.89,8.963-1.337,14.496-1.337c0.801,0,1.942,0.043,3.427,0.122c1.589,0.091,3.174,0.233,4.754,0.426
			c1.684,0.203,3.387,0.446,5.111,0.73c1.725,0.286,3.269,0.667,4.634,1.157L420.425,556.171z"/>
		<path fill="#322835" d="M317.028,556.777c-1.526,3.81-2.287,8.228-2.287,13.25c0,4.859,0.72,9.115,2.164,12.761
			c1.446,3.647,3.51,6.707,6.198,9.18c2.686,2.47,5.934,4.334,9.742,5.592c3.808,1.255,8.12,1.884,12.933,1.884
			c3.609,0,6.857-0.306,9.745-0.911c2.887-0.609,5.612-1.355,8.18-2.25l-2.045-12.766c-1.845,0.651-4.11,1.3-6.795,1.945
			c-2.691,0.65-5.519,0.974-8.483,0.974c-4.812,0-8.743-1.07-11.788-3.221c-3.052-2.144-4.573-5.084-4.573-8.812h36.692
			c0.078-0.647,0.138-1.5,0.18-2.553c0.039-1.012,0.059-2.024,0.061-3.038c0-9.562-2.165-16.835-6.496-21.82
			c-4.332-4.982-10.668-7.476-19.007-7.476c-3.369,0-6.66,0.65-9.866,1.945c-3.208,1.299-6.054,3.222-8.542,5.773
			C320.555,549.789,318.55,552.97,317.028,556.777L317.028,556.777z M352.034,559.634c0.404,1.444,0.607,2.938,0.602,4.438h-22.617
			c0.16-1.54,0.5-3.041,1.024-4.497c0.493-1.412,1.225-2.729,2.164-3.894c0.921-1.132,2.085-2.021,3.487-2.671
			c1.403-0.649,3.07-0.974,4.995-0.974c2.003,0,3.687,0.345,5.053,1.034c1.363,0.688,2.482,1.603,3.366,2.732
			C350.992,556.943,351.646,558.244,352.034,559.634L352.034,559.634z"/>
		<path fill="#322835" d="M277.425,598.105c-3.61-7.209-7.28-15.658-11.01-25.345c-3.726-9.682-7.275-20.275-10.646-31.784h15.52
			c0.721,3.08,1.58,6.361,2.586,9.845c1.012,3.52,2.074,7.024,3.188,10.514c1.095,3.44,2.238,6.864,3.43,10.272
			c1.064,3.053,2.166,6.092,3.306,9.117c1.154-3.043,2.317-6.082,3.489-9.117c1.313-3.406,2.576-6.83,3.79-10.272
			c1.232-3.495,2.436-6.999,3.61-10.514c1.16-3.483,2.104-6.766,2.827-9.845h15.036c-3.369,11.509-7.096,22.103-11.188,31.784
			c-4.09,9.687-7.938,18.136-11.547,25.345H277.425z M247.049,556.171c-1.133-0.282-2.276-0.526-3.427-0.729
			c-1.34-0.246-2.684-0.469-4.031-0.67c-1.317-0.195-2.642-0.337-3.971-0.427c-1.082-0.071-2.165-0.111-3.249-0.12
			c-2.086,0-4.13,0.103-6.132,0.306c-2.073,0.215-4.125,0.6-6.136,1.151v42.424h-14.918v-53.36c3.941-1.463,7.981-2.642,12.09-3.528
			c4.131-0.89,8.964-1.337,14.496-1.337c0.801,0,1.943,0.043,3.427,0.122c1.589,0.091,3.174,0.233,4.754,0.426
			c1.685,0.203,3.387,0.446,5.111,0.73c1.725,0.286,3.269,0.667,4.634,1.156L247.049,556.171z"/>
		<path fill="#322835" d="M143.653,556.777c-1.526,3.81-2.287,8.228-2.287,13.25c0,4.859,0.72,9.115,2.166,12.761
			c1.444,3.647,3.507,6.707,6.196,9.18c2.686,2.47,5.934,4.334,9.742,5.592c3.808,1.255,8.12,1.884,12.933,1.884
			c3.61,0,6.858-0.306,9.745-0.911c2.887-0.609,5.613-1.355,8.18-2.25l-2.045-12.766c-1.845,0.651-4.11,1.3-6.796,1.945
			c-2.69,0.65-5.515,0.974-8.482,0.974c-4.812,0-8.743-1.07-11.788-3.221c-3.052-2.144-4.573-5.084-4.573-8.812h36.692
			c0.078-0.647,0.138-1.5,0.18-2.553c0.04-1.052,0.06-2.066,0.06-3.038c0-9.562-2.165-16.835-6.496-21.82
			c-4.332-4.982-10.668-7.476-19.007-7.476c-3.369,0-6.66,0.65-9.866,1.945c-3.208,1.299-6.054,3.222-8.542,5.773
			C147.18,549.789,145.175,552.97,143.653,556.777L143.653,556.777z M178.659,559.634c0.405,1.444,0.607,2.938,0.602,4.438h-22.617
			c0.16-1.54,0.5-3.041,1.024-4.497c0.493-1.412,1.225-2.729,2.164-3.894c0.92-1.132,2.085-2.021,3.487-2.671
			c1.403-0.649,3.07-0.974,4.995-0.974c2.003,0,3.687,0.345,5.053,1.034c1.363,0.688,2.485,1.603,3.366,2.732
			C177.617,556.943,178.271,558.244,178.659,559.634L178.659,559.634z"/>
		<path fill="#322835" d="M107.945,586.8c3.61,0,6.376-0.261,8.302-0.789c1.923-0.526,2.887-1.598,2.887-3.221
			c0-1.053-0.302-1.946-0.904-2.676c-0.602-0.727-1.443-1.355-2.526-1.882c-1.081-0.528-2.326-1.033-3.727-1.521
			c-1.458-0.504-2.923-0.99-4.393-1.458c-2.164-0.65-4.37-1.4-6.617-2.247c-2.247-0.852-4.29-1.925-6.135-3.224
			c-1.845-1.296-3.367-2.938-4.571-4.92c-1.203-1.984-1.803-4.479-1.803-7.479c0-2.428,0.46-4.72,1.38-6.866
			c0.922-2.148,2.366-4.056,4.333-5.715c1.964-1.659,4.469-2.957,7.519-3.89c3.047-0.931,6.695-1.398,10.947-1.398
			c3.688,0,7.117,0.286,10.285,0.853c3.168,0.565,5.914,1.38,8.24,2.43l-2.286,12.644c-2.132-0.646-4.256-1.316-6.374-2.009
			c-2.889-0.928-6.137-1.395-9.744-1.395c-3.77,0-6.316,0.467-7.64,1.395c-1.322,0.935-1.985,1.928-1.985,2.979
			c0,0.895,0.301,1.684,0.901,2.372c0.603,0.689,1.404,1.317,2.408,1.884c1.001,0.569,2.164,1.114,3.489,1.641
			c1.405,0.558,2.829,1.064,4.27,1.521c2.164,0.729,4.408,1.54,6.735,2.43c2.327,0.892,4.433,2.006,6.316,3.345
			c1.885,1.336,3.431,3.036,4.631,5.104c1.205,2.066,1.805,4.601,1.805,7.597c0,2.354-0.44,4.58-1.323,6.686
			c-0.883,2.11-2.344,3.932-4.39,5.471c-2.044,1.54-4.712,2.755-8,3.646c-3.291,0.891-7.338,1.336-12.15,1.336
			c-4.895,0-9.065-0.564-12.511-1.7c-3.45-1.133-6.216-2.146-8.302-3.039l2.287-12.521c2.94,1.185,5.93,2.239,8.962,3.163
			C101.398,586.311,104.662,586.801,107.945,586.8 M1096.053,554.472h-12.947V542.13h12.947v-14.278l14.883-2.42v16.698h23.838
			v12.342h-23.838v22.99c0,2.097,0.202,3.791,0.605,5.082c0.403,1.29,0.968,2.299,1.694,3.025c0.726,0.726,1.612,1.21,2.661,1.452
			c1.05,0.241,2.219,0.362,3.51,0.362c1.371,0,2.622-0.04,3.751-0.121c1.21-0.08,2.34-0.202,3.388-0.362
			c1.149-0.248,2.281-0.571,3.388-0.969c1.21-0.402,2.5-0.928,3.872-1.572l2.057,12.825c-2.742,1.131-5.727,1.937-8.953,2.421
			c-3.043,0.476-6.117,0.718-9.196,0.726c-3.469,0-6.534-0.282-9.196-0.847c-2.662-0.565-4.92-1.654-6.775-3.268
			s-3.268-3.872-4.235-6.775c-0.968-2.985-1.452-6.857-1.452-11.616V554.472z M1192.362,570.443c0,4.518-0.646,8.631-1.937,12.343
			c-1.291,3.63-3.105,6.775-5.445,9.438c-2.339,2.662-5.162,4.719-8.47,6.171c-3.227,1.452-6.856,2.178-10.89,2.178
			s-7.704-0.726-11.011-2.178c-3.228-1.452-6.051-3.509-8.471-6.171c-2.34-2.662-4.153-5.808-5.444-9.438
			c-1.29-3.71-1.937-7.825-1.937-12.343c0-4.437,0.646-8.47,1.937-12.1c1.371-3.71,3.227-6.857,5.565-9.438
			c2.377-2.632,5.312-4.699,8.591-6.051c3.308-1.452,6.897-2.178,10.77-2.178c3.953,0,7.542,0.727,10.77,2.178
			c3.307,1.371,6.131,3.389,8.47,6.051c2.42,2.58,4.274,5.727,5.565,9.438C1191.717,561.974,1192.362,566.007,1192.362,570.443
			L1192.362,570.443z M1153.884,570.564c0,5.082,0.887,9.196,2.662,12.342c1.854,3.146,4.8,4.72,8.833,4.72
			c3.872,0,6.776-1.573,8.712-4.72c2.017-3.146,3.025-7.26,3.025-12.342s-0.929-9.156-2.783-12.221
			c-1.775-3.146-4.679-4.719-8.712-4.719c-3.872,0-6.816,1.572-8.833,4.719C1154.852,561.408,1153.884,565.482,1153.884,570.564z
			 M1244.627,557.255c-1.161-0.282-2.331-0.524-3.509-0.727c-1.324-0.247-2.655-0.448-3.993-0.604
			c-1.321-0.236-2.654-0.397-3.993-0.484c-1.088-0.073-2.177-0.113-3.267-0.121c-2.098,0-4.154,0.121-6.172,0.363
			c-2.086,0.174-4.151,0.538-6.171,1.089V599h-15.004v-53.119c3.947-1.45,7.99-2.623,12.101-3.509
			c4.194-0.887,9.074-1.331,14.641-1.331c0.807,0,1.936,0.04,3.388,0.121c1.533,0.08,3.146,0.242,4.84,0.484
			c1.705,0.162,3.4,0.404,5.082,0.726c1.775,0.242,3.349,0.604,4.72,1.089L1244.627,557.255z M1305.362,570.443
			c0,4.518-0.646,8.631-1.937,12.343c-1.291,3.63-3.105,6.775-5.445,9.438c-2.339,2.662-5.162,4.719-8.47,6.171
			c-3.227,1.452-6.856,2.178-10.89,2.178s-7.704-0.726-11.011-2.178c-3.228-1.452-6.051-3.509-8.471-6.171
			c-2.339-2.662-4.153-5.808-5.444-9.438c-1.291-3.71-1.937-7.825-1.937-12.343c0-4.437,0.646-8.47,1.937-12.1
			c1.371-3.71,3.227-6.857,5.565-9.438c2.378-2.632,5.312-4.699,8.591-6.051c3.308-1.452,6.897-2.178,10.77-2.178
			c3.953,0,7.542,0.727,10.77,2.178c3.307,1.371,6.131,3.389,8.47,6.051c2.42,2.58,4.274,5.727,5.565,9.438
			C1304.717,561.974,1305.362,566.007,1305.362,570.443L1305.362,570.443z M1266.884,570.564c0,5.082,0.887,9.196,2.662,12.342
			c1.854,3.146,4.8,4.72,8.833,4.72c3.872,0,6.776-1.573,8.712-4.72c2.017-3.146,3.025-7.26,3.025-12.342s-0.929-9.156-2.783-12.221
			c-1.775-3.146-4.679-4.719-8.712-4.719c-3.872,0-6.816,1.572-8.833,4.719C1267.852,561.408,1266.884,565.482,1266.884,570.564z
			 M1312.373,543.944c2.662-0.726,5.929-1.411,9.801-2.057c3.953-0.646,8.229-0.968,12.826-0.968c4.517,0,8.268,0.645,11.253,1.936
			c2.985,1.21,5.324,2.985,7.019,5.324c1.774,2.259,3.024,5.001,3.75,8.228c0.727,3.146,1.09,6.655,1.09,10.527V599h-14.884v-30.129
			c0-5.324-0.604-9.156-1.814-11.495c-1.21-2.34-3.67-3.509-7.381-3.509c-1.129,0-2.259,0.04-3.388,0.121
			c-1.05,0.08-2.179,0.202-3.389,0.362V599h-14.883V543.944z M1378.553,554.472h-12.947V542.13h12.947v-14.278l14.883-2.42v16.698
			h23.838v12.342h-23.838v22.99c0,2.097,0.202,3.791,0.605,5.082c0.403,1.29,0.968,2.299,1.694,3.025
			c0.726,0.726,1.612,1.21,2.661,1.452c1.05,0.241,2.219,0.362,3.51,0.362c1.371,0,2.622-0.04,3.751-0.121
			c1.134-0.072,2.265-0.193,3.388-0.362c1.149-0.248,2.281-0.571,3.388-0.969c1.32-0.447,2.613-0.973,3.872-1.572l2.057,12.825
			c-2.742,1.131-5.727,1.937-8.953,2.421c-3.043,0.476-6.117,0.718-9.196,0.726c-3.469,0-6.534-0.282-9.196-0.847
			c-2.662-0.565-4.921-1.654-6.775-3.268c-1.855-1.613-3.268-3.872-4.235-6.775c-0.968-2.985-1.452-6.857-1.452-11.616V554.472z
			 M1474.862,570.443c0,4.518-0.646,8.631-1.937,12.342c-1.291,3.631-3.105,6.776-5.445,9.438c-2.339,2.662-5.162,4.719-8.47,6.171
			c-3.227,1.452-6.856,2.178-10.89,2.178s-7.704-0.726-11.011-2.178c-3.228-1.452-6.051-3.509-8.471-6.171
			c-2.339-2.662-4.153-5.808-5.444-9.438c-1.291-3.71-1.937-7.824-1.937-12.342c0-4.437,0.646-8.47,1.937-12.1
			c1.371-3.71,3.227-6.857,5.565-9.438c2.378-2.631,5.312-4.698,8.591-6.05c3.308-1.452,6.897-2.178,10.77-2.178
			c3.953,0,7.542,0.726,10.77,2.178c3.307,1.371,6.131,3.389,8.47,6.05c2.42,2.581,4.274,5.728,5.565,9.438
			C1474.217,561.974,1474.862,566.007,1474.862,570.443L1474.862,570.443z M1436.384,570.564c0,5.082,0.887,9.196,2.662,12.342
			c1.854,3.146,4.8,4.72,8.833,4.72c3.872,0,6.776-1.573,8.712-4.72c2.017-3.146,3.025-7.26,3.025-12.342s-0.929-9.156-2.783-12.221
			c-1.775-3.146-4.679-4.719-8.712-4.719c-3.872,0-6.816,1.572-8.833,4.719C1437.352,561.408,1436.384,565.482,1436.384,570.564z"/>
	</g>
</g>
</svg>
