<?xml version="1.0" encoding="utf-8"?>
<!-- Generator: Adobe Illustrator 15.0.2, SVG Export Plug-In . SVG Version: 6.00 Build 0)  -->
<!DOCTYPE svg PUBLIC "-//W3C//DTD SVG 1.1//EN" "http://www.w3.org/Graphics/SVG/1.1/DTD/svg11.dtd">
<svg version="1.1" id="Layer_1" xmlns="http://www.w3.org/2000/svg" xmlns:xlink="http://www.w3.org/1999/xlink" x="0px" y="0px"
	 width="384.799px" height="107.156px" viewBox="0 0 384.799 107.156" enable-background="new 0 0 384.799 107.156"
	 xml:space="preserve">
<g>
	<g>
		<path fill="#1F1F20" d="M275.504,5.186h-80.641v15.84h31.248v86.112h18.145V21.026h31.248V5.186z M380.695,31.176
			c-2.735-6.575-6.552-12.168-11.448-16.776c-4.896-4.608-10.705-8.159-17.424-10.656C345.102,1.249,337.758,0,329.792,0
			c-7.873,0-15.146,1.249-21.816,3.744c-6.674,2.498-12.434,6.048-17.28,10.656c-4.849,4.608-8.64,10.201-11.376,16.776
			c-2.736,6.577-4.104,13.945-4.104,22.104c0,7.97,1.367,15.241,4.104,21.815c2.736,6.577,6.527,12.24,11.376,16.992
			c4.847,4.752,10.606,8.449,17.28,11.088c6.671,2.64,13.943,3.96,21.816,3.96c7.967,0,15.311-1.32,22.031-3.96
			c6.719-2.639,12.528-6.336,17.424-11.088c4.896-4.752,8.713-10.415,11.448-16.992c2.736-6.574,4.104-13.846,4.104-21.815
			C384.799,45.122,383.431,37.753,380.695,31.176z M362.551,68.328c-1.681,4.561-4.082,8.521-7.2,11.88
			c-3.121,3.361-6.84,5.977-11.16,7.849c-4.32,1.871-9.072,2.808-14.256,2.808s-9.913-0.937-14.184-2.808
			c-4.273-1.872-7.97-4.487-11.089-7.849c-3.12-3.359-5.521-7.319-7.199-11.88c-1.682-4.559-2.521-9.576-2.521-15.048
			c0-5.279,0.839-10.175,2.521-14.688c1.678-4.511,4.054-8.447,7.128-11.808c3.071-3.359,6.743-5.999,11.016-7.92
			c4.271-1.919,9.047-2.88,14.328-2.88c5.278,0,10.08,0.96,14.4,2.88c4.319,1.921,8.014,4.561,11.088,7.92
			c3.071,3.361,5.447,7.297,7.128,11.808c1.679,4.513,2.52,9.409,2.52,14.688C365.071,58.752,364.23,63.77,362.551,68.328z
			 M32.778,48.1c1.09-0.7,2.304-1.2,3.642-1.5c1.336-0.3,2.603-0.45,3.8-0.45c2.603,0,4.962,0.467,7.073,1.4
			c2.111,0.935,3.87,2.3,5.278,4.1l11.929-10c-1.198-1.466-2.676-2.766-4.434-3.9c-1.76-1.133-3.678-2.083-5.753-2.85
			c-2.077-0.766-4.241-1.35-6.492-1.75c-2.253-0.4-4.47-0.6-6.651-0.6c-4.153,0-8.059,0.55-11.718,1.65
			c-3.66,1.1-6.862,2.667-9.607,4.7c-2.745,2.034-4.909,4.5-6.492,7.4s-2.375,6.15-2.375,9.75c0,2.867,0.475,5.317,1.425,7.35
			c0.95,2.035,2.217,3.785,3.801,5.25c1.583,1.468,3.447,2.7,5.595,3.7c2.146,1,4.45,1.9,6.915,2.7
			c3.518,1.135,6.334,2.417,8.445,3.85c2.111,1.435,3.167,3.385,3.167,5.851c0,1.534-0.335,2.85-1.003,3.95
			c-0.67,1.1-1.567,2-2.692,2.699c-1.127,0.7-2.412,1.2-3.854,1.5c-1.443,0.301-2.939,0.45-4.486,0.45c-2.956,0-5.877-0.665-8.762-2
			c-2.887-1.333-5.067-3.065-6.545-5.2L0,96.149c1.478,1.801,3.272,3.4,5.384,4.801c2.111,1.399,4.397,2.55,6.862,3.449
			c2.463,0.9,5.031,1.583,7.707,2.051c2.674,0.465,5.348,0.699,8.023,0.699c3.589,0,7.213-0.434,10.874-1.3
			c3.659-0.865,6.967-2.25,9.923-4.149c2.956-1.9,5.366-4.351,7.231-7.351c1.864-3,2.798-6.633,2.798-10.899
			c0-2.666-0.458-5.051-1.373-7.15c-0.916-2.1-2.253-3.982-4.011-5.65c-1.76-1.665-3.906-3.149-6.44-4.449
			c-2.534-1.301-5.42-2.483-8.656-3.551c-2.956-1-5.262-2.082-6.915-3.25c-1.655-1.165-2.481-2.75-2.481-4.75
			c0-1.532,0.37-2.833,1.108-3.899C30.772,49.684,31.687,48.8,32.778,48.1z M97.226,36.356H79.597l-13.196,70.8h46.872l2.745-14.5
			H86.669L97.226,36.356z M149.956,48.1c1.09-0.7,2.305-1.2,3.642-1.5c1.336-0.3,2.603-0.45,3.801-0.45
			c2.603,0,4.961,0.467,7.073,1.4c2.111,0.935,3.87,2.3,5.278,4.1l11.929-10c-1.198-1.466-2.675-2.766-4.434-3.9
			c-1.76-1.133-3.678-2.083-5.753-2.85c-2.077-0.766-4.241-1.35-6.492-1.75c-2.253-0.4-4.47-0.6-6.651-0.6
			c-4.153,0-8.059,0.55-11.718,1.65c-3.66,1.1-6.862,2.667-9.606,4.7c-2.745,2.034-4.909,4.5-6.493,7.4s-2.375,6.15-2.375,9.75
			c0,2.867,0.475,5.317,1.425,7.35c0.95,2.035,2.217,3.785,3.8,5.25c1.583,1.468,3.447,2.7,5.595,3.7c2.146,1,4.45,1.9,6.915,2.7
			c3.518,1.135,6.334,2.417,8.445,3.85c2.111,1.435,3.167,3.385,3.167,5.851c0,1.534-0.335,2.85-1.003,3.95
			c-0.67,1.1-1.567,2-2.692,2.699c-1.127,0.7-2.412,1.2-3.854,1.5c-1.443,0.301-2.939,0.45-4.486,0.45c-2.956,0-5.877-0.665-8.762-2
			c-2.887-1.333-5.067-3.065-6.545-5.2l-12.985,10c1.478,1.801,3.272,3.4,5.384,4.801c2.111,1.399,4.397,2.55,6.862,3.449
			c2.463,0.9,5.031,1.583,7.707,2.051c2.674,0.465,5.348,0.699,8.023,0.699c3.589,0,7.213-0.434,10.874-1.3
			c3.659-0.865,6.967-2.25,9.923-4.149c2.956-1.9,5.366-4.351,7.231-7.351c1.864-3,2.797-6.633,2.797-10.899
			c0-2.666-0.458-5.051-1.373-7.15c-0.915-2.1-2.253-3.982-4.011-5.65c-1.76-1.665-3.906-3.149-6.44-4.449
			c-2.533-1.301-5.42-2.483-8.656-3.551c-2.956-1-5.262-2.082-6.915-3.25c-1.655-1.165-2.481-2.75-2.481-4.75
			c0-1.532,0.37-2.833,1.108-3.899C147.95,49.684,148.864,48.8,149.956,48.1z"/>
	</g>
</g>
</svg>
