<svg id="Layer_1" data-name="Layer 1" xmlns="http://www.w3.org/2000/svg" viewBox="0 0 500 500"><defs><style>.cls-1{fill:#ffffff;}</style></defs><title>Serverless_lockup_icon-red</title><polygon class="cls-1" points="88.5 366.02 0 366.02 0 448.83 61.08 448.83 88.5 366.02"/><polygon class="cls-1" points="140.63 208.6 0 208.6 0 291.4 113.21 291.4 140.63 208.6"/><polygon class="cls-1" points="192.75 51.17 0 51.17 0 133.98 165.34 133.98 192.75 51.17"/><polygon class="cls-1" points="279.98 51.17 252.56 133.98 500 133.98 500 51.17 279.98 51.17"/><polygon class="cls-1" points="200.44 291.4 500 291.4 500 208.6 227.85 208.6 200.44 291.4"/><polygon class="cls-1" points="148.31 448.83 500 448.83 500 366.02 175.73 366.02 148.31 448.83"/></svg>
