<svg viewBox="0 0 1536 1536" fill="none" xmlns="http://www.w3.org/2000/svg">
<path fill-rule="evenodd" clip-rule="evenodd" d="M1536 288V1248C1536 1327.33 1507.83 1395.17 1451.5 1451.5C1395.17 1507.83 1327.33 1536 1248 1536H288C208.667 1536 140.833 1507.83 84.5 1451.5C28.1667 1395.17 0 1327.33 0 1248V288C0 208.667 28.1667 140.833 84.5 84.5C140.833 28.1667 208.667 0 288 0H1248C1327.33 0 1395.17 28.1667 1451.5 84.5C1507.83 140.833 1536 208.667 1536 288ZM919.355 364.002C995.071 377.129 1067.76 399.848 1134.89 431.15C1135.9 431.15 1136.41 431.655 1136.91 432.159C1256.54 608.358 1315.6 806.771 1293.39 1035.48C1293.39 1036.49 1292.89 1037.5 1291.88 1038C1201.02 1104.64 1113.69 1145.03 1026.87 1171.79C1025.36 1172.3 1023.84 1171.79 1022.33 1171.29C1002.64 1143.52 984.471 1114.24 968.318 1083.44C967.813 1081.92 968.318 1079.4 970.337 1078.9C999.109 1067.79 1026.87 1055.17 1053.12 1039.52C1055.64 1038.51 1055.64 1035.48 1053.62 1033.96C1050.85 1031.69 1048.07 1029.54 1045.3 1027.4C1042.52 1025.25 1039.74 1023.11 1036.97 1020.84C1035.96 1019.83 1034.44 1019.83 1033.43 1020.33C861.81 1099.59 674.538 1099.59 500.895 1020.33C499.886 1019.83 498.372 1019.83 497.362 1020.84C494.586 1022.85 491.809 1025 489.033 1027.15C486.257 1029.29 483.481 1031.44 480.704 1033.46C479.19 1034.97 479.19 1038 481.209 1039.01C507.962 1054.16 535.22 1067.28 563.992 1078.39C566.012 1078.9 567.021 1080.91 566.012 1082.93C550.364 1113.73 532.192 1143.01 512.001 1170.78C511.496 1171.79 509.981 1172.3 508.467 1171.79C422.15 1145.03 334.824 1104.64 243.965 1038C242.955 1037.5 242.45 1036.49 242.45 1035.48C223.774 837.568 261.632 637.641 398.931 432.159C399.436 431.655 399.94 431.15 400.445 431.15C468.085 399.848 540.268 377.129 615.984 364.002C617.499 364.002 619.013 364.507 619.518 365.517C629.109 382.178 639.709 403.382 646.776 420.548C727.086 408.431 808.758 408.431 889.068 420.548C896.135 403.887 906.735 382.178 915.821 365.517C916.264 365.021 916.809 364.629 917.42 364.367C918.03 364.106 918.691 363.981 919.355 364.002ZM496.857 807.781C496.857 866.851 540.268 914.813 592.26 914.813C645.261 914.813 687.662 866.851 687.662 807.781C688.167 749.216 645.766 700.749 592.26 700.749C539.258 700.749 496.857 748.712 496.857 807.781ZM848.686 807.781C848.686 866.851 892.097 914.813 944.089 914.813C997.595 914.813 1039.49 866.851 1039.49 807.781C1040 749.216 997.595 700.749 944.089 700.749C891.087 700.749 848.686 748.712 848.686 807.781Z" fill="currentColor"/>
</svg>

